<?xml version="1.0" encoding="utf-8"?><!-- Uploaded to: SVG Repo, www.svgrepo.com, Generator: SVG Repo Mixer Tools -->
<svg width="800px" height="800px" viewBox="0 0 24 24" xmlns="http://www.w3.org/2000/svg" id="cart-alt-1" class="icon glyph"><path d="M10.62,14l-1,2H19a1,1,0,0,1,0,2H9.62a2,2,0,0,1-1.79-2.89L8.9,13,5.32,4H3A1,1,0,0,1,3,2H5.32A2,2,0,0,1,7.18,3.26L7.88,5H20.8l.09,0a1,1,0,0,1,.48.05,1,1,0,0,1,.56,1.3l-2.8,7a1,1,0,0,1-.93.63Zm-.12,5A1.5,1.5,0,1,0,12,20.5,1.5,1.5,0,0,0,10.5,19Zm6,0A1.5,1.5,0,1,0,18,20.5,1.5,1.5,0,0,0,16.5,19Z" style="fill:#231f20"></path></svg>