<?xml version="1.0" encoding="iso-8859-1"?>
<!-- Uploaded to: SVG Repo, www.svgrepo.com, Generator: SVG Repo Mixer Tools -->
<svg height="800px" width="800px" version="1.1" id="Layer_1" xmlns="http://www.w3.org/2000/svg" xmlns:xlink="http://www.w3.org/1999/xlink" 
	 viewBox="0 0 512 512" xml:space="preserve">
<path style="fill:#FCE190;" d="M366.659,175.34c-0.011,21.763-17.656,39.407-39.43,39.407h-0.934H185.704h-0.945
	c-21.763,0-39.418-17.644-39.418-39.407c0-17.757,11.748-32.757,27.884-37.697c-4.434-5.266-7.1-12.074-7.1-19.49
	c0-12.907,8.057-23.923,19.4-28.312V70.487C185.524,31.62,217.144,0,256,0c38.867,0,70.487,31.62,70.487,70.487v19.355
	c11.343,4.4,19.389,15.416,19.389,28.312c0,7.416-2.667,14.223-7.1,19.49C354.911,142.584,366.659,157.583,366.659,175.34z"/>
<path style="fill:#FFEFE8;" d="M298.22,70.487v1.092c-0.585,22.821-19.253,41.129-42.22,41.129c-23.316,0-42.22-18.893-42.22-42.22
	S232.684,28.256,256,28.256C256,51.594,274.882,70.476,298.22,70.487z"/>
<path style="fill:#FFB354;" d="M298.22,71.579v74.808h-84.441v-75.9c0,23.327,18.905,42.22,42.22,42.22
	C278.967,112.708,297.635,94.399,298.22,71.579z"/>
<g>
	<path style="fill:#FFCFBB;" d="M108.858,290.123c-2.912,0-5.746-1.509-7.311-4.211c-2.336-4.033-0.961-9.197,3.072-11.533
		l65.101-37.711c6.094-3.531,13.296-12.944,15.109-19.75l19.366-72.698c1.2-4.503,5.824-7.182,10.328-5.982
		c4.503,1.2,7.183,5.823,5.982,10.328l-19.366,72.698c-3.001,11.265-12.871,24.166-22.958,30.01l-65.102,37.711
		C111.75,289.756,110.294,290.123,108.858,290.123z"/>
	<path style="fill:#FFCFBB;" d="M403.142,290.123c-1.436,0-2.891-0.367-4.222-1.139l-65.101-37.711
		c-10.087-5.844-19.958-18.746-22.959-30.01l-19.366-72.7c-1.2-4.503,1.479-9.128,5.982-10.328
		c4.502-1.201,9.127,1.477,10.328,5.982l19.366,72.698c1.813,6.806,9.016,16.22,15.11,19.75l65.101,37.711
		c4.033,2.336,5.409,7.5,3.072,11.533C408.887,288.613,406.054,290.123,403.142,290.123z"/>
</g>
<polygon style="fill:#C22A4D;" points="203.911,146.387 219.53,250.059 292.47,250.059 308.089,146.387 "/>
<polygon style="fill:#FCE190;" points="387.117,478.242 396.108,512 115.892,512 124.883,478.242 "/>
<path style="fill:#FE547B;" d="M292.47,250.059c24.767,13.154,43.492,36.189,50.874,63.871l43.773,164.313H124.883l43.773-164.313
	c7.382-27.682,26.106-50.716,50.874-63.871L292.47,250.059L292.47,250.059z"/>
<path style="fill:#FE7F9C;" d="M387.665,486.681h-263.33c-4.661,0-8.44-3.779-8.44-8.44s3.779-8.44,8.44-8.44h263.331
	c4.661,0,8.44,3.779,8.44,8.44S392.326,486.681,387.665,486.681z"/>
<path style="fill:#FE547B;" d="M308.088,146.39c0-4.661-3.779-8.44-8.44-8.44h-87.297c-4.661,0-8.44,3.779-8.44,8.44l1.272,8.44
	h101.634L308.088,146.39z"/>
</svg>