<!DOCTYPE svg PUBLIC "-//W3C//DTD SVG 1.1//EN" "http://www.w3.org/Graphics/SVG/1.1/DTD/svg11.dtd">
<!-- Uploaded to: SVG Repo, www.svgrepo.com, Transformed by: SVG Repo Mixer Tools -->
<svg fill="#000000" width="800px" height="800px" viewBox="0 0 256 256" id="Flat" xmlns="http://www.w3.org/2000/svg" transform="matrix(-1, 0, 0, 1, 0, 0)">
<g id="SVGRepo_bgCarrier" stroke-width="0"/>
<g id="SVGRepo_tracerCarrier" stroke-linecap="round" stroke-linejoin="round"/>
<g id="SVGRepo_iconCarrier"> <path d="M116,72v88a48.05436,48.05436,0,0,1-48,48,8,8,0,0,1,0-16,32.036,32.036,0,0,0,32-32v-8H40a16.01833,16.01833,0,0,1-16-16V72A16.01833,16.01833,0,0,1,40,56h60A16.01833,16.01833,0,0,1,116,72ZM216,56H156a16.01833,16.01833,0,0,0-16,16v64a16.01833,16.01833,0,0,0,16,16h60v8a32.036,32.036,0,0,1-32,32,8,8,0,0,0,0,16,48.05436,48.05436,0,0,0,48-48V72A16.01833,16.01833,0,0,0,216,56Z"/> </g>
</svg>