<svg width="290" height="72" viewBox="0 0 290 72" fill="none" xmlns="http://www.w3.org/2000/svg">
<g clip-path="url(#clip0)">
<g clip-path="url(#clip1)">
<rect width="0" height="0" transform="translate(-6.3042 -1.56522)" fill="white"/>
</g>
<path d="M78.9194 46H73.3754C71.6154 46 70.3761 45.6993 69.6574 45.098C68.9534 44.482 68.6014 43.404 68.6014 41.864V30.336H78.9194V33.064H71.6594V36.738H76.7414L76.5214 39.466H71.6594V41.644C71.6594 42.26 71.7987 42.6853 72.0774 42.92C72.3561 43.1547 72.8621 43.272 73.5954 43.272H78.9194V46ZM91.4477 46H88.5877V37.97C88.5877 37.2513 88.441 36.76 88.1477 36.496C87.8544 36.232 87.4437 36.1 86.9157 36.1L84.3417 37.178V46H81.4817V33.438H83.6157L84.2757 34.934L87.7957 33.306C88.7784 33.306 89.629 33.6727 90.3477 34.406C91.081 35.1247 91.4477 36.1807 91.4477 37.574V46ZM99.681 46H97.899C96.8137 46 95.985 45.6773 95.413 45.032C94.8557 44.3867 94.577 43.6167 94.577 42.722V36.122H93.367V33.944H94.577V31.48H97.437V33.944H99.461V36.122H97.437V42.546C97.437 43.2353 97.767 43.58 98.427 43.58H99.681V46ZM108.713 33.482L107.921 36.298C107.701 36.21 107.452 36.166 107.173 36.166C106.44 36.166 105.538 36.4813 104.467 37.112V46H101.607V33.438H103.741L104.401 34.538L107.437 33.284C107.584 33.2693 107.782 33.262 108.031 33.262C108.281 33.262 108.508 33.3353 108.713 33.482ZM119.266 46H117.352L116.472 44.482L113.414 46.132C111.712 46.132 110.568 45.516 109.982 44.284C109.688 43.6827 109.483 43.0373 109.366 42.348C109.263 41.644 109.212 40.918 109.212 40.17C109.212 39.4073 109.219 38.85 109.234 38.498C109.248 38.1313 109.285 37.7133 109.344 37.244C109.402 36.76 109.483 36.3567 109.586 36.034C109.703 35.7113 109.864 35.3813 110.07 35.044C110.275 34.692 110.524 34.4133 110.818 34.208C111.478 33.7533 112.336 33.526 113.392 33.526H116.406L119.266 33.35V46ZM116.406 41.996V36.1H114.228C113.421 36.1 112.856 36.408 112.534 37.024C112.226 37.64 112.072 38.564 112.072 39.796C112.072 41.0133 112.218 41.8713 112.512 42.37C112.82 42.8687 113.392 43.118 114.228 43.118L116.406 41.996ZM129.038 33.482L128.246 36.298C128.026 36.21 127.776 36.166 127.498 36.166C126.764 36.166 125.862 36.4813 124.792 37.112V46H121.932V33.438H124.066L124.726 34.538L127.762 33.284C127.908 33.2693 128.106 33.262 128.356 33.262C128.605 33.262 128.832 33.3353 129.038 33.482ZM142.481 41.402L145.077 41.38C145.063 41.4973 145.048 41.71 145.033 42.018C145.019 42.326 145.004 42.5387 144.989 42.656C144.989 42.7587 144.975 42.9273 144.945 43.162C144.916 43.3967 144.879 43.5727 144.835 43.69C144.806 43.7927 144.762 43.932 144.703 44.108C144.439 44.8707 143.721 45.472 142.547 45.912C141.799 46.176 141.015 46.308 140.193 46.308C139.387 46.308 138.653 46.176 137.993 45.912C137.333 45.648 136.813 45.3107 136.431 44.9C135.566 43.9907 135.133 42.2893 135.133 39.796C135.133 37.288 135.566 35.5793 136.431 34.67C136.813 34.2593 137.333 33.922 137.993 33.658C138.653 33.394 139.387 33.262 140.193 33.262C141.777 33.262 142.98 33.658 143.801 34.45C144.623 35.242 145.033 36.342 145.033 37.75H142.437C142.437 37.1047 142.276 36.628 141.953 36.32C141.631 35.9973 141.029 35.836 140.149 35.836C139.284 35.836 138.705 36.1073 138.411 36.65C138.133 37.1927 137.993 38.0067 137.993 39.092V40.236C137.993 41.9813 138.331 43.052 139.005 43.448C139.313 43.6387 139.717 43.734 140.215 43.734C140.714 43.734 141.117 43.69 141.425 43.602C141.748 43.4993 141.975 43.3307 142.107 43.096C142.254 42.8613 142.349 42.634 142.393 42.414C142.437 42.1793 142.467 41.842 142.481 41.402ZM154.263 40.324V39.18C154.263 38.0947 154.102 37.266 153.779 36.694C153.471 36.122 152.819 35.836 151.821 35.836C150.208 35.836 149.401 36.9213 149.401 39.092V40.236C149.401 42.568 150.208 43.734 151.821 43.734C152.863 43.734 153.545 43.3453 153.867 42.568C154.131 41.952 154.263 41.204 154.263 40.324ZM157.123 39.664C157.123 42.3773 156.61 44.196 155.583 45.12C154.718 45.912 153.464 46.308 151.821 46.308C149.724 46.308 148.309 45.692 147.575 44.46C146.886 43.3307 146.541 41.732 146.541 39.664C146.541 37.728 146.886 36.21 147.575 35.11C148.338 33.878 149.724 33.262 151.733 33.262C153.757 33.262 155.158 33.8047 155.935 34.89C156.727 35.9607 157.123 37.552 157.123 39.664ZM175.603 46H172.743V38.19C172.743 37.4127 172.647 36.87 172.457 36.562C172.281 36.254 171.965 36.1 171.511 36.1L168.937 37.178V46H166.077V38.19C166.077 36.7967 165.593 36.1 164.625 36.1L162.271 37.178V46H159.411V33.438H161.545L162.205 34.934L165.505 33.306C166.649 33.306 167.514 33.8633 168.101 34.978L172.193 33.306C173.337 33.306 174.187 33.6947 174.745 34.472C175.317 35.2347 175.603 36.2687 175.603 37.574V46ZM190.593 40.324V39.18C190.593 38.0947 190.432 37.266 190.109 36.694C189.801 36.122 189.149 35.836 188.151 35.836C186.538 35.836 185.731 36.9213 185.731 39.092V40.236C185.731 42.568 186.538 43.734 188.151 43.734C189.193 43.734 189.875 43.3453 190.197 42.568C190.461 41.952 190.593 41.204 190.593 40.324ZM193.453 39.664C193.453 42.3773 192.94 44.196 191.913 45.12C191.048 45.912 189.794 46.308 188.151 46.308C186.054 46.308 184.639 45.692 183.905 44.46C183.216 43.3307 182.871 41.732 182.871 39.664C182.871 37.728 183.216 36.21 183.905 35.11C184.668 33.878 186.054 33.262 188.063 33.262C190.087 33.262 191.488 33.8047 192.265 34.89C193.057 35.9607 193.453 37.552 193.453 39.664ZM200.106 38.63V36.694C200.106 34.6553 200.641 33.064 201.712 31.92C202.783 30.776 204.264 30.204 206.156 30.204C208.048 30.204 209.566 30.776 210.71 31.92C211.517 32.7267 211.92 33.9367 211.92 35.55H209.06C209.06 33.8047 208.129 32.932 206.266 32.932C205.709 32.932 205.232 33.042 204.836 33.262C204.455 33.4673 204.169 33.7093 203.978 33.988C203.787 34.2667 203.641 34.6773 203.538 35.22C203.435 35.7627 203.377 36.2173 203.362 36.584C203.347 36.9507 203.34 37.442 203.34 38.058C203.34 38.674 203.34 39.092 203.34 39.312C203.355 39.5173 203.377 39.862 203.406 40.346C203.45 40.8153 203.509 41.1527 203.582 41.358C203.67 41.5633 203.787 41.8273 203.934 42.15C204.095 42.4727 204.293 42.7 204.528 42.832C205.129 43.2133 205.811 43.404 206.574 43.404C207.85 43.404 208.752 42.8613 209.28 41.776V40.72H207.388V38.168H211.898V42.898C211.443 43.9687 210.725 44.7753 209.742 45.318C208.759 45.8607 207.645 46.132 206.398 46.132C204.183 46.132 202.577 45.516 201.58 44.284C200.597 43.0373 200.106 41.1527 200.106 38.63ZM221.66 40.324V39.18C221.66 38.0947 221.499 37.266 221.176 36.694C220.868 36.122 220.215 35.836 219.218 35.836C217.605 35.836 216.798 36.9213 216.798 39.092V40.236C216.798 42.568 217.605 43.734 219.218 43.734C220.259 43.734 220.941 43.3453 221.264 42.568C221.528 41.952 221.66 41.204 221.66 40.324ZM224.52 39.664C224.52 42.3773 224.007 44.196 222.98 45.12C222.115 45.912 220.861 46.308 219.218 46.308C217.121 46.308 215.705 45.692 214.972 44.46C214.283 43.3307 213.938 41.732 213.938 39.664C213.938 37.728 214.283 36.21 214.972 35.11C215.735 33.878 217.121 33.262 219.13 33.262C221.154 33.262 222.555 33.8047 223.332 34.89C224.124 35.9607 224.52 37.552 224.52 39.664ZM233.605 40.324V39.18C233.605 38.0947 233.444 37.266 233.121 36.694C232.813 36.122 232.161 35.836 231.163 35.836C229.55 35.836 228.743 36.9213 228.743 39.092V40.236C228.743 42.568 229.55 43.734 231.163 43.734C232.205 43.734 232.887 43.3453 233.209 42.568C233.473 41.952 233.605 41.204 233.605 40.324ZM236.465 39.664C236.465 42.3773 235.952 44.196 234.925 45.12C234.06 45.912 232.806 46.308 231.163 46.308C229.066 46.308 227.651 45.692 226.917 44.46C226.228 43.3307 225.883 41.732 225.883 39.664C225.883 37.728 226.228 36.21 226.917 35.11C227.68 33.878 229.066 33.262 231.075 33.262C233.099 33.262 234.5 33.8047 235.277 34.89C236.069 35.9607 236.465 37.552 236.465 39.664ZM244.912 33.526L247.772 33.35V45.428C247.772 46.8213 247.376 47.8847 246.584 48.618C245.807 49.366 244.648 49.74 243.108 49.74C241.92 49.74 240.879 49.5053 239.984 49.036C239.515 48.8013 239.141 48.4493 238.862 47.98C238.584 47.5107 238.444 46.9533 238.444 46.308L241.106 46.176C241.106 46.5867 241.253 46.88 241.546 47.056C241.84 47.232 242.338 47.32 243.042 47.32C243.761 47.32 244.245 47.144 244.494 46.792C244.758 46.44 244.89 45.934 244.89 45.274L245 43.382L241.92 45.032C240.234 45.032 239.097 44.46 238.51 43.316C237.982 42.304 237.718 41.0647 237.718 39.598C237.718 37.8527 237.85 36.6207 238.114 35.902C238.393 35.11 238.789 34.538 239.302 34.186C239.962 33.746 240.828 33.526 241.898 33.526H244.912ZM244.912 40.896V36.1H242.734C241.913 36.1 241.348 36.3787 241.04 36.936C240.732 37.4933 240.578 38.2707 240.578 39.268C240.578 40.2653 240.732 40.9767 241.04 41.402C241.363 41.8127 241.928 42.018 242.734 42.018L244.912 40.896ZM253.706 46L250.846 46.022V29.456H253.706V46ZM266.194 40.39H258.868C258.868 41.534 259.044 42.37 259.396 42.898C259.763 43.426 260.489 43.69 261.574 43.69C262.278 43.69 262.799 43.47 263.136 43.03C263.473 42.5753 263.642 42.1427 263.642 41.732H266.216C266.216 43.3013 265.791 44.4527 264.94 45.186C264.104 45.9193 262.989 46.286 261.596 46.286C260.217 46.286 259.147 46.088 258.384 45.692C256.815 44.8853 256.03 42.744 256.03 39.268C256.03 37.2 256.477 35.6893 257.372 34.736C258.267 33.768 259.631 33.284 261.464 33.284C264.647 33.284 266.238 35.0513 266.238 38.586C266.238 38.9673 266.223 39.5687 266.194 40.39ZM258.934 38.432H263.642C263.642 37.464 263.459 36.76 263.092 36.32C262.725 35.88 262.161 35.66 261.398 35.66C260.65 35.66 260.049 35.8873 259.594 36.342C259.154 36.782 258.934 37.4787 258.934 38.432Z" fill="black"/>
</g>
<defs>
<clipPath id="clip0">
<rect width="290" height="72" fill="white"/>
</clipPath>
<clipPath id="clip1">
<rect width="0" height="0" fill="white" transform="translate(-6.3042 -1.56522)"/>
</clipPath>
</defs>
</svg>
